Coordinates
version=1
nRows=15
nColumns=23
inDegrees=yes

Units are S.I. units (second, meters, Newtons, ...)
If the header above contains a line with 'inDegrees', this indicates whether rotational values are in degrees (yes) or radians (no).

endheader
time	pelvis_tilt	pelvis_list	pelvis_rotation	pelvis_tx	pelvis_ty	pelvis_tz	hip_flexion_r	hip_adduction_r	hip_rotation_r	knee_angle_r	knee_angle_r_beta	ankle_angle_r	subtalar_angle_r	mtp_angle_r	hip_flexion_l	hip_adduction_l	hip_rotation_l	knee_angle_l	knee_angle_l_beta	ankle_angle_l	subtalar_angle_l	mtp_angle_l
      0.00000000	     -6.31222685	     -1.90666067	      0.13350394	      2.36969052	      0.99952141	      1.04083987	     47.91001001	      3.03046386	     -1.26882247	     97.86809084	      1.70812042	      0.54176229	    -17.52903507	      0.00000000	     -1.66752863	     -0.85438318	     -8.69861683	     34.31699918	      0.59894463	     16.46927026	      4.29970713	      0.00000000
      0.00666667	     -6.88440232	     -1.74565181	     -1.04184493	      2.37268834	      1.00446412	      1.04193419	     49.32632878	      3.66506378	     -0.88954284	     94.06802683	      1.64179679	      0.82813900	    -17.60883349	      0.00000000	     -3.69419981	     -0.56324205	    -10.15129519	     31.83236701	      0.55557961	     11.24301528	      3.68653045	      0.00000000
      0.01333333	     -7.70317608	     -1.59758892	     -2.22740484	      2.37558069	      1.00865507	      1.04300876	     50.76164039	      4.37958862	     -0.52044910	     90.08965717	      1.57236114	      1.36299878	    -17.41893467	      0.00000000	     -5.39136123	     -0.29896103	    -11.93392403	     29.43822877	      0.51379402	      6.01134260	      3.61624732	      0.00000000
      0.02000000	     -7.59698905	     -1.90098765	     -3.01481516	      2.37915332	      1.01457054	      1.04330213	     50.68508533	      5.11267509	     -0.68894376	     85.59718788	      1.49395276	      1.97809470	    -17.21305369	      0.00000000	     -8.31775311	     -0.07602948	    -12.42752023	     26.32561599	      0.45946868	      0.34258751	      1.98608074	      0.00000000
      0.02666667	     -7.85959661	     -2.06013881	     -3.82333528	      2.38244517	      1.01935774	      1.04369016	     50.88098587	      5.75998700	     -0.76880125	     81.04272872	      1.41446245	      2.63545812	    -16.74327534	      0.00000000	    -10.62740071	      0.22034819	    -13.29213013	     23.62414411	      0.41231910	     -4.87910985	      1.01286873	      0.00000000
      0.03333333	     -8.43838153	     -1.91355559	     -4.77475713	      2.38536590	      1.02300558	      1.04432080	     51.35622247	      6.30819905	     -0.56084797	     76.47306355	      1.33470675	      3.33801334	    -16.01494074	      0.00000000	    -12.31480505	      0.75285046	    -14.70711269	     21.46934637	      0.37471078	     -9.34939168	      0.71268333	      0.00000000
      0.04000000	     -8.52973763	     -2.08126426	     -5.21726298	      2.38862929	      1.02746140	      1.04414663	     50.96914805	      6.56648565	     -1.00900101	     71.53143320	      1.24845903	      3.95498405	    -15.11247833	      0.00000000	    -14.47897307	      1.11550029	    -15.03034356	     19.28279769	      0.33654831	    -13.55729028	     -0.70815151	      0.00000000
      0.04666667	     -9.00612766	     -1.75656442	     -5.93450949	      2.39131185	      1.03045988	      1.04446916	     51.04675867	      6.72100453	     -0.98088543	     66.69035952	      1.16396635	      4.68590436	    -13.82983304	      0.00000000	    -15.83224525	      1.83516444	    -16.15712988	     17.93255346	      0.31298210	    -16.54869391	     -1.14586964	      0.00000000
      0.05333333	     -9.32336691	     -1.49349931	     -6.39099302	      2.39398826	      1.03335996	      1.04442480	     50.77944271	      6.66155325	     -1.27630250	     61.67365721	      1.07640838	      5.40887171	    -12.17642078	      0.00000000	    -17.13589418	      2.46246086	    -16.89691272	     17.05086321	      0.29759370	    -18.82470998	     -1.93569087	      0.00000000
      0.06000000	     -9.75866824	     -1.01333244	     -6.84337562	      2.39631547	      1.03545316	      1.04452947	     50.59983901	      6.48990949	     -1.47535926	     56.65223597	      0.98876805	      6.17554177	    -10.23394420	      0.00000000	    -17.98596777	      3.20149344	    -17.73851967	     16.89508490	      0.29487486	    -20.14480912	     -2.58347377	      0.00000000
      0.06666667	    -10.03525857	     -0.53985403	     -7.18178751	      2.39847370	      1.03729453	      1.04461740	     50.14700824	      6.23891536	     -1.83513987	     51.58816598	      0.90038335	      6.99879979	     -7.86454276	      0.00000000	    -18.78018160	      3.86303409	    -18.45059243	     17.28761245	      0.30172576	    -20.70127652	     -3.18935375	      0.00000000
      0.07333333	    -10.30260407	     -0.01121466	     -7.49349459	      2.40035198	      1.03856520	      1.04491631	     49.62072052	      6.03132676	     -2.10444280	     46.54766533	      0.81241002	      7.89537409	     -5.30640900	      0.00000000	    -19.32092052	      4.44969576	    -19.24503273	     18.35164086	      0.32029656	    -20.51156928	     -3.61837049	      0.00000000
      0.08000000	    -10.46545857	      0.46952052	     -7.76941625	      2.40196561	      1.03943364	      1.04548464	     48.90104974	      5.94913389	     -2.27527504	     41.55049760	      0.72519299	      8.82031926	     -2.66584452	      0.00000000	    -19.74494478	      4.85323294	    -20.11155389	     20.04049557	      0.34977263	    -19.75677833	     -3.77678555	      0.00000000
      0.08666667	    -10.55548947	      0.86783516	     -7.98301005	      2.40332553	      1.03998968	      1.04624371	     47.98854187	      6.04538386	     -2.16109103	     36.58363694	      0.63850492	      9.65587075	     -0.37347891	      0.00000000	    -20.04888183	      5.03219013	    -20.96357722	     22.27628957	      0.38879460	    -18.63240602	     -3.80625546	      0.00000000
      0.09333333	    -10.57049277	      1.18405778	     -8.14172130	      2.40443109	      1.04027979	      1.04723712	     46.88656910	      6.30685187	     -1.66598019	     31.70282323	      0.55331865	     10.35915447	      1.40720344	      0.00000000	    -20.25367425	      5.02593510	    -21.60562656	     24.97283048	      0.43585812	    -17.43115568	     -3.85654912	      0.00000000
